<svg width="288" height="75" viewBox="0 0 288 75" fill="none" xmlns="http://www.w3.org/2000/svg">
<g clip-path="url(#clip0_3_21)">
<path d="M58.4454 0L55.9055 7.68359L60.9034 6.94267L55.1681 9.79658L53.9937 15.4495L51.9727 11.6077L46.4286 14.736L51.1534 9.68682L49.3509 6.94267L52.9559 7.60127L58.4454 0Z" fill="#235888"/>
<path d="M52.437 16.1081C52.437 16.1081 41.4307 55.4317 38.5903 62.6762C35.0945 71.5398 26.5462 73.5155 25.9454 73.4881C25.9454 73.4881 28.458 72.2258 30.0147 71.1556C34.0567 68.4114 35.6954 65.1185 36.4328 62.8134C36.7059 61.8804 50.334 16.1081 50.334 16.1081H49.0504C49.0504 16.1081 38.126 52.0289 36.2962 58.7246C34.521 65.2557 32.4727 67.5882 28.458 70.5244C25.5903 72.6374 21.6303 73.4607 21.6303 73.4607C21.6303 73.4607 25.0168 71.8416 28.1029 69.0152C31.4622 65.9417 33.5105 62.7036 34.6576 58.3679C35.3676 55.761 46.8929 16.0807 46.8929 16.0807H24.3887C19.2815 16.0807 16.9874 18.9072 16.6597 19.8402C16.3319 20.7732 12.4811 31.1735 12.4811 31.1735C12.4811 31.1735 21.3845 31.0088 26.2185 31.1735C26.4643 31.1735 26.7101 31.2009 26.9832 31.2558C32.6366 31.8321 37.0609 36.6069 37.0609 42.4519C37.0609 48.6536 32.0357 53.7029 25.8634 53.7029C25.3992 53.7029 24.9349 53.6754 24.4979 53.6205C22.1765 53.5931 18.3803 53.5656 15.7857 53.5108C8.41176 53.4284 5.54412 57.4349 4.5063 60.1241C4.09664 61.1669 0 74.2839 0 74.2839C0 74.2839 16.4685 74.476 25.5903 74.2839C34.6849 74.0918 39.6281 65.6673 40.2017 62.8683C40.6113 61.0023 54.0756 16.1081 54.0756 16.1081H52.437Z" fill="#235888"/>
<path d="M26.9286 49.8885C30.9106 49.8885 34.1387 46.645 34.1387 42.6439C34.1387 38.6429 30.9106 35.3994 26.9286 35.3994C22.9466 35.3994 19.7185 38.6429 19.7185 42.6439C19.7185 46.645 22.9466 49.8885 26.9286 49.8885Z" fill="#235888"/>
</g>
<path d="M72.2726 22.517V20.9869H73.7539V22.517C75.2731 22.5983 76.4723 23.0568 77.3513 23.8924C78.2302 24.7226 78.6697 25.7562 78.6697 26.9933C78.6697 28.2033 78.2438 29.2315 77.3919 30.0779C76.5401 30.9243 75.3274 31.391 73.7539 31.4778V33.016H72.2726V31.4778C70.8619 31.4235 69.6872 30.9949 68.7485 30.1919C67.8099 29.3834 67.3405 28.3172 67.3405 26.9933C67.3405 25.664 67.8071 24.6005 68.7404 23.8029C69.6791 23.0053 70.8565 22.5766 72.2726 22.517ZM73.7539 23.868V30.1186C74.774 30.0698 75.577 29.7741 76.163 29.2315C76.749 28.6889 77.042 27.9428 77.042 26.9933C77.042 26.0601 76.7544 25.3221 76.1793 24.7795C75.6041 24.2315 74.7957 23.9277 73.7539 23.868ZM72.2726 23.8761C71.2906 23.9195 70.4957 24.2098 69.888 24.747C69.2803 25.2842 68.9764 26.0329 68.9764 26.9933C68.9764 27.9428 69.2748 28.6889 69.8717 29.2315C70.474 29.7741 71.2743 30.0671 72.2726 30.1105V23.8761Z" fill="#235888"/>
<path d="M80.6719 33.016V21.0845H89.299V22.4925H82.2508V26.1469H88.8514V27.5467H82.2508V31.608H89.5757V33.016H80.6719Z" fill="#235888"/>
<path d="M92.8394 21.0845H100.099V31.608H101.174V35.7995H99.7655V33.016H91.879V35.7995H90.471V31.608H91.3988C92.3592 30.1593 92.8394 27.232 92.8394 22.8262V21.0845ZM98.5203 22.4925H94.3614V23.103C94.3614 24.1176 94.2691 25.5066 94.0847 27.27C93.9056 29.028 93.5502 30.474 93.0185 31.608H98.5203V22.4925Z" fill="#235888"/>
<path d="M103.086 33.016V21.0845H111.713V22.4925H104.665V26.1469H111.266V27.5467H104.665V31.608H111.99V33.016H103.086Z" fill="#235888"/>
<path d="M114.171 33.016V21.0845H118.672C119.464 21.0845 120.069 21.1225 120.487 21.1985C121.073 21.2961 121.564 21.4833 121.96 21.76C122.356 22.0313 122.674 22.4139 122.912 22.9076C123.156 23.4014 123.279 23.944 123.279 24.5354C123.279 25.55 122.956 26.41 122.31 27.1154C121.664 27.8153 120.498 28.1653 118.81 28.1653H115.75V33.016H114.171ZM115.75 26.7573H118.835C119.855 26.7573 120.579 26.5674 121.008 26.1876C121.436 25.8077 121.651 25.2733 121.651 24.5842C121.651 24.085 121.523 23.6591 121.268 23.3064C121.019 22.9483 120.688 22.7123 120.275 22.5983C120.009 22.5278 119.518 22.4925 118.802 22.4925H115.75V26.7573Z" fill="#235888"/>
<path d="M122.855 33.016L127.438 21.0845H129.139L134.022 33.016H132.223L130.831 29.4024H125.842L124.532 33.016H122.855ZM126.298 28.1165H130.343L129.098 24.8121C128.718 23.8083 128.436 22.9836 128.251 22.3379C128.099 23.103 127.885 23.8626 127.608 24.6168L126.298 28.1165Z" fill="#235888"/>
<path d="M136.529 21.0845H144V33.016H142.421V22.4925H138.107V28.6373C138.107 29.8853 138.048 30.7996 137.928 31.3801C137.814 31.9607 137.57 32.4138 137.196 32.7393C136.822 33.0594 136.347 33.2195 135.772 33.2195C135.424 33.2195 135.007 33.1544 134.518 33.0242L134.787 31.6243C135.047 31.7328 135.27 31.7871 135.454 31.7871C135.812 31.7871 136.081 31.6541 136.26 31.3883C136.439 31.117 136.529 30.4821 136.529 29.4838V21.0845Z" fill="#235888"/>
<path d="M146.653 21.0845H148.232V26.1794H151.081C152.41 26.1794 153.373 26.3341 153.97 26.6433C154.567 26.9526 154.996 27.3731 155.256 27.9048C155.516 28.4366 155.647 28.9846 155.647 29.5489C155.647 30.4713 155.332 31.2797 154.703 31.9743C154.073 32.6688 152.901 33.016 151.187 33.016H146.653V21.0845ZM148.232 31.6731H151.121C152.293 31.6731 153.056 31.4669 153.408 31.0546C153.767 30.6368 153.946 30.1349 153.946 29.5489C153.946 29.0714 153.815 28.6672 153.555 28.3362C153.3 27.9998 152.958 27.7828 152.529 27.6851C152.101 27.5874 151.374 27.5386 150.348 27.5386H148.232V31.6731Z" fill="#235888"/>
<path d="M157.584 33.016V21.0845H159.163V25.9841H165.364V21.0845H166.943V33.016H165.364V27.3921H159.163V33.016H157.584Z" fill="#235888"/>
<path d="M169.662 21.0845H171.241V26.1794H174.089C175.956 26.1794 177.182 26.524 177.768 27.213C178.359 27.9021 178.655 28.6835 178.655 29.557C178.655 30.4794 178.34 31.2879 177.711 31.9824C177.082 32.6715 175.912 33.016 174.203 33.016H169.662V21.0845ZM171.241 31.6731H174.13C175.123 31.6731 175.842 31.5076 176.287 31.1767C176.737 30.8402 176.962 30.3058 176.962 29.5733C176.962 29.0741 176.827 28.6563 176.555 28.3199C176.284 27.9835 175.934 27.7692 175.505 27.677C175.077 27.5847 174.36 27.5386 173.357 27.5386H171.241V31.6731ZM180.087 21.0845H181.666V33.016H180.087V21.0845Z" fill="#235888"/>
<path d="M184.368 21.0845H185.801V30.5337L192.149 21.0845H193.736V33.016H192.304V23.5913L185.947 33.016H184.368V21.0845ZM190.302 18.2441H191.303C191.221 18.9223 190.972 19.4432 190.554 19.8067C190.142 20.1703 189.591 20.352 188.902 20.352C188.207 20.352 187.651 20.173 187.233 19.8149C186.821 19.4513 186.574 18.9277 186.493 18.2441H187.494C187.57 18.613 187.719 18.8898 187.941 19.0742C188.169 19.2533 188.473 19.3428 188.853 19.3428C189.292 19.3428 189.623 19.256 189.846 19.0824C190.074 18.9033 190.226 18.6239 190.302 18.2441Z" fill="#235888"/>
<path d="M200.988 21.0845H202.42V30.5337L208.769 21.0845H210.356V33.016H208.923V23.5913L202.567 33.016H200.988V21.0845Z" fill="#235888"/>
<path d="M212.993 33.016V21.0845H214.572V25.9841H220.773V21.0845H222.352V33.016H220.773V27.3921H214.572V33.016H212.993Z" fill="#235888"/>
<path d="M233.503 28.8327L235.081 29.2315C234.75 30.5283 234.154 31.5185 233.291 32.2021C232.434 32.8804 231.384 33.2195 230.141 33.2195C228.855 33.2195 227.808 32.9591 227 32.4382C226.197 31.9119 225.583 31.1522 225.16 30.1593C224.742 29.1664 224.534 28.1002 224.534 26.9607C224.534 25.7182 224.77 24.6358 225.242 23.7134C225.719 22.7855 226.395 22.0829 227.268 21.6054C228.147 21.1225 229.113 20.8811 230.166 20.8811C231.359 20.8811 232.363 21.1849 233.177 21.7926C233.991 22.4003 234.558 23.2549 234.878 24.3563L233.323 24.7226C233.047 23.8544 232.645 23.2223 232.119 22.8262C231.593 22.4301 230.931 22.2321 230.133 22.2321C229.216 22.2321 228.448 22.4518 227.83 22.8913C227.217 23.3308 226.785 23.9223 226.536 24.6656C226.286 25.4035 226.161 26.1659 226.161 26.9526C226.161 27.9672 226.308 28.8544 226.601 29.614C226.899 30.3682 227.36 30.9325 227.984 31.3069C228.608 31.6813 229.284 31.8685 230.011 31.8685C230.895 31.8685 231.644 31.6134 232.257 31.1034C232.87 30.5934 233.285 29.8365 233.503 28.8327Z" fill="#235888"/>
<path d="M239.517 33.016V22.4925H235.586V21.0845H245.043V22.4925H241.096V33.016H239.517Z" fill="#235888"/>
<path d="M246.696 21.0845H248.128V30.5337L254.476 21.0845H256.063V33.016H254.631V23.5913L248.274 33.016H246.696V21.0845Z" fill="#235888"/>
<path d="M261.687 33.016V22.4925H257.756V21.0845H267.213V22.4925H263.266V33.016H261.687Z" fill="#235888"/>
<path d="M267.637 21.0845H269.232L273.122 28.3932L276.524 21.0845H278.095L273.619 30.3628C273.06 31.5239 272.601 32.2835 272.243 32.6416C271.885 32.9997 271.372 33.1788 270.705 33.1788C270.298 33.1788 269.799 33.0838 269.207 32.8939V31.5429C269.631 31.7871 270.078 31.9091 270.55 31.9091C270.936 31.9091 271.267 31.7871 271.543 31.5429C271.825 31.2933 272.135 30.729 272.471 29.85L267.637 21.0845Z" fill="#235888"/>
<path d="M282.474 33.016V22.4925H278.543V21.0845H288V22.4925H284.053V33.016H282.474Z" fill="#235888"/>
<path d="M67.9753 41.5993H77.3594V53.5308H75.7723V43.0074H69.5543V53.5308H67.9753V41.5993Z" fill="#235888"/>
<path d="M79.9394 53.5308V41.5993H84.4402C85.2323 41.5993 85.8373 41.6373 86.2551 41.7133C86.8411 41.8109 87.3321 41.9981 87.7282 42.2749C88.1243 42.5462 88.4417 42.9287 88.6805 43.4224C88.9246 43.9162 89.0467 44.4588 89.0467 45.0502C89.0467 46.0648 88.7239 46.9248 88.0782 47.6302C87.4325 48.3301 86.266 48.6801 84.5785 48.6801H81.5183V53.5308H79.9394ZM81.5183 47.2721H84.6029C85.623 47.2721 86.3474 47.0822 86.776 46.7024C87.2046 46.3226 87.419 45.7881 87.419 45.099C87.419 44.5998 87.2915 44.1739 87.0364 43.8212C86.7868 43.4631 86.4559 43.2271 86.0435 43.1132C85.7776 43.0426 85.2866 43.0074 84.5704 43.0074H81.5183V47.2721Z" fill="#235888"/>
<path d="M90.2024 47.7197C90.2024 45.7393 90.7342 44.1902 91.7976 43.0725C92.8611 41.9493 94.2339 41.3877 95.9159 41.3877C97.0173 41.3877 98.0103 41.6509 98.8947 42.1772C99.7791 42.7035 100.452 43.4387 100.913 44.3828C101.38 45.3215 101.613 46.3877 101.613 47.5814C101.613 48.7913 101.369 49.8738 100.881 50.8288C100.392 51.7837 99.7004 52.5081 98.8052 53.0018C97.9099 53.4901 96.9441 53.7343 95.9077 53.7343C94.7846 53.7343 93.7808 53.463 92.8964 52.9204C92.012 52.3778 91.3419 51.6372 90.8861 50.6985C90.4303 49.7599 90.2024 48.7669 90.2024 47.7197ZM91.8302 47.7441C91.8302 49.182 92.2154 50.316 92.9859 51.1462C93.7618 51.9709 94.733 52.3833 95.8996 52.3833C97.0879 52.3833 98.0645 51.9655 98.8296 51.1299C99.6001 50.2943 99.9853 49.1087 99.9853 47.5732C99.9853 46.602 99.8198 45.7556 99.4888 45.0339C99.1633 44.3069 98.6831 43.7453 98.0483 43.3492C97.4188 42.9477 96.7108 42.7469 95.924 42.7469C94.8063 42.7469 93.8432 43.1321 93.0347 43.9026C92.2317 44.6677 91.8302 45.9482 91.8302 47.7441Z" fill="#235888"/>
<path d="M103.607 53.5308V41.5993H105.984L108.808 50.0474C109.068 50.8342 109.258 51.4229 109.377 51.8135C109.513 51.3795 109.725 50.7419 110.012 49.9009L112.869 41.5993H114.993V53.5308H113.471V43.5445L110.004 53.5308H108.58L105.129 43.3736V53.5308H103.607Z" fill="#235888"/>
<path d="M117.622 41.5993H119.201V46.6942H122.05C123.916 46.6942 125.142 47.0388 125.728 47.7279C126.32 48.417 126.615 49.1983 126.615 50.0718C126.615 50.9942 126.301 51.8027 125.671 52.4972C125.042 53.1863 123.873 53.5308 122.164 53.5308H117.622V41.5993ZM119.201 52.1879H122.09C123.083 52.1879 123.802 52.0224 124.247 51.6915C124.697 51.3551 124.923 50.8206 124.923 50.0881C124.923 49.5889 124.787 49.1711 124.516 48.8347C124.244 48.4983 123.894 48.284 123.466 48.1918C123.037 48.0995 122.321 48.0534 121.317 48.0534H119.201V52.1879ZM128.048 41.5993H129.627V53.5308H128.048V41.5993Z" fill="#235888"/>
<path d="M132.329 41.5993H133.908V52.1228H137.871V41.5993H139.45V52.1228H143.414V41.5993H144.993V53.5308H132.329V41.5993Z" fill="#235888"/>
<path d="M148.46 41.5993H155.931V53.5308H154.353V43.0074H150.039V49.1522C150.039 50.4001 149.979 51.3144 149.86 51.8949C149.746 52.4755 149.502 52.9286 149.127 53.2541C148.753 53.5742 148.278 53.7343 147.703 53.7343C147.356 53.7343 146.938 53.6692 146.45 53.539L146.718 52.1391C146.979 52.2476 147.201 52.3019 147.386 52.3019C147.744 52.3019 148.012 52.1689 148.191 51.9031C148.371 51.6318 148.46 50.997 148.46 49.9986V41.5993Z" fill="#235888"/>
<path d="M158.56 53.5308V41.5993H167.187V43.0074H160.139V46.6617H166.74V48.0616H160.139V52.1228H167.464V53.5308H158.56Z" fill="#235888"/>
<path d="M169.694 53.5308V41.5993H171.273V46.4989H177.475V41.5993H179.054V53.5308H177.475V47.9069H171.273V53.5308H169.694Z" fill="#235888"/>
<path d="M181.74 53.5308V41.5993H183.319V46.4989H189.52V41.5993H191.099V53.5308H189.52V47.9069H183.319V53.5308H181.74Z" fill="#235888"/>
<path d="M193.256 47.7197C193.256 45.7393 193.788 44.1902 194.851 43.0725C195.915 41.9493 197.287 41.3877 198.97 41.3877C200.071 41.3877 201.064 41.6509 201.948 42.1772C202.833 42.7035 203.506 43.4387 203.967 44.3828C204.433 45.3215 204.667 46.3877 204.667 47.5814C204.667 48.7913 204.423 49.8738 203.934 50.8288C203.446 51.7837 202.754 52.5081 201.859 53.0018C200.964 53.4901 199.998 53.7343 198.961 53.7343C197.838 53.7343 196.834 53.463 195.95 52.9204C195.066 52.3778 194.396 51.6372 193.94 50.6985C193.484 49.7599 193.256 48.7669 193.256 47.7197ZM194.884 47.7441C194.884 49.182 195.269 50.316 196.04 51.1462C196.815 51.9709 197.787 52.3833 198.953 52.3833C200.142 52.3833 201.118 51.9655 201.883 51.1299C202.654 50.2943 203.039 49.1087 203.039 47.5732C203.039 46.602 202.873 45.7556 202.542 45.0339C202.217 44.3069 201.737 43.7453 201.102 43.3492C200.472 42.9477 199.764 42.7469 198.978 42.7469C197.86 42.7469 196.897 43.1321 196.088 43.9026C195.285 44.6677 194.884 45.9482 194.884 47.7441Z" fill="#235888"/>
<path d="M206.734 41.5993H208.166V51.0485L214.515 41.5993H216.102V53.5308H214.669V44.1061L208.313 53.5308H206.734V41.5993ZM212.667 38.7589H213.668C213.587 39.4371 213.337 39.958 212.919 40.3215C212.507 40.6851 211.956 40.8668 211.267 40.8668C210.573 40.8668 210.017 40.6878 209.599 40.3297C209.186 39.9662 208.94 39.4426 208.858 38.7589H209.859C209.935 39.1279 210.084 39.4046 210.307 39.5891C210.535 39.7681 210.839 39.8576 211.218 39.8576C211.658 39.8576 211.989 39.7708 212.211 39.5972C212.439 39.4181 212.591 39.1387 212.667 38.7589Z" fill="#235888"/>
<path d="M76.4723 69.8623L78.0512 70.2611C77.7202 71.5579 77.1234 72.5481 76.2607 73.2318C75.4034 73.91 74.3535 74.2491 73.1109 74.2491C71.825 74.2491 70.7778 73.9887 69.9694 73.4678C69.1663 72.9415 68.5532 72.1819 68.13 71.1889C67.7122 70.196 67.5033 69.1298 67.5033 67.9904C67.5033 66.7479 67.7393 65.6654 68.2114 64.743C68.6888 63.8152 69.3644 63.1125 70.2379 62.635C71.1169 62.1521 72.0827 61.9107 73.1353 61.9107C74.329 61.9107 75.3328 62.2145 76.1467 62.8222C76.9606 63.4299 77.5276 64.2845 77.8477 65.386L76.2932 65.7522C76.0165 64.8841 75.615 64.2519 75.0887 63.8559C74.5624 63.4598 73.9004 63.2617 73.1028 63.2617C72.1858 63.2617 71.4181 63.4815 70.7995 63.921C70.1864 64.3605 69.755 64.9519 69.5054 65.6952C69.2558 66.4332 69.1311 67.1955 69.1311 67.9822C69.1311 68.9969 69.2776 69.884 69.5705 70.6436C69.869 71.3978 70.3302 71.9621 70.9541 72.3365C71.5781 72.7109 72.2536 72.8981 72.9807 72.8981C73.8651 72.8981 74.6139 72.6431 75.227 72.133C75.8401 71.623 76.2552 70.8661 76.4723 69.8623Z" fill="#235888"/>
<path d="M79.1499 68.2345C79.1499 66.2541 79.6817 64.705 80.7451 63.5873C81.8086 62.4641 83.1814 61.9025 84.8634 61.9025C85.9648 61.9025 86.9578 62.1657 87.8422 62.692C88.7266 63.2183 89.3994 63.9535 89.8606 64.8976C90.3272 65.8363 90.5605 66.9025 90.5605 68.0962C90.5605 69.3061 90.3164 70.3886 89.8281 71.3436C89.3397 72.2985 88.6479 73.0229 87.7527 73.5166C86.8574 74.005 85.8916 74.2491 84.8552 74.2491C83.7321 74.2491 82.7283 73.9778 81.8439 73.4352C80.9595 72.8927 80.2894 72.152 79.8336 71.2133C79.3778 70.2747 79.1499 69.2817 79.1499 68.2345ZM80.7777 68.259C80.7777 69.6968 81.1629 70.8308 81.9334 71.661C82.7093 72.4857 83.6805 72.8981 84.8471 72.8981C86.0354 72.8981 87.012 72.4803 87.7771 71.6447C88.5475 70.8091 88.9328 69.6236 88.9328 68.088C88.9328 67.1168 88.7673 66.2704 88.4363 65.5487C88.1108 64.8217 87.6306 64.2601 86.9957 63.864C86.3663 63.4625 85.6583 63.2617 84.8715 63.2617C83.7538 63.2617 82.7907 63.647 81.9822 64.4174C81.1792 65.1825 80.7777 66.463 80.7777 68.259Z" fill="#235888"/>
<path d="M92.6766 62.1142H100.417V63.5222H94.2556V67.2009H97.1042C98.1568 67.2009 98.9924 67.3013 99.6109 67.502C100.235 67.7028 100.734 68.0826 101.108 68.6415C101.483 69.1949 101.67 69.8406 101.67 70.5785C101.67 71.1808 101.534 71.7451 101.263 72.2714C100.997 72.7923 100.598 73.2182 100.067 73.5492C99.5349 73.8802 98.6288 74.0457 97.3483 74.0457H92.6766V62.1142ZM94.2556 72.7027H97.4134C98.2653 72.7027 98.9028 72.5291 99.326 72.1819C99.7547 71.8346 99.969 71.3137 99.969 70.6192C99.969 70.1255 99.8469 69.7131 99.6028 69.3821C99.3586 69.0511 99.0195 68.8314 98.5854 68.7229C98.1513 68.6144 97.4107 68.5601 96.3635 68.5601H94.2556V72.7027Z" fill="#235888"/>
<path d="M111.86 69.8623L113.439 70.2611C113.108 71.5579 112.511 72.5481 111.648 73.2318C110.791 73.91 109.741 74.2491 108.498 74.2491C107.213 74.2491 106.165 73.9887 105.357 73.4678C104.554 72.9415 103.941 72.1819 103.518 71.1889C103.1 70.196 102.891 69.1298 102.891 67.9904C102.891 66.7479 103.127 65.6654 103.599 64.743C104.076 63.8152 104.752 63.1125 105.625 62.635C106.504 62.1521 107.47 61.9107 108.523 61.9107C109.717 61.9107 110.72 62.2145 111.534 62.8222C112.348 63.4299 112.915 64.2845 113.235 65.386L111.681 65.7522C111.404 64.8841 111.003 64.2519 110.476 63.8559C109.95 63.4598 109.288 63.2617 108.49 63.2617C107.573 63.2617 106.806 63.4815 106.187 63.921C105.574 64.3605 105.143 64.9519 104.893 65.6952C104.643 66.4332 104.519 67.1955 104.519 67.9822C104.519 68.9969 104.665 69.884 104.958 70.6436C105.257 71.3978 105.718 71.9621 106.342 72.3365C106.966 72.7109 107.641 72.8981 108.368 72.8981C109.253 72.8981 110.001 72.6431 110.615 72.133C111.228 71.623 111.643 70.8661 111.86 69.8623Z" fill="#235888"/>
<path d="M117.874 74.0457V63.5222H113.943V62.1142H123.401V63.5222H119.453V74.0457H117.874Z" fill="#235888"/>
<path d="M124.963 74.0457V62.1142H129.44C130.351 62.1142 131.081 62.2362 131.629 62.4804C132.182 62.7191 132.614 63.0908 132.923 63.5954C133.238 64.0946 133.395 64.6182 133.395 65.1662C133.395 65.6762 133.257 66.1564 132.98 66.6068C132.703 67.0571 132.286 67.4207 131.727 67.6974C132.448 67.909 133.002 68.2698 133.387 68.7798C133.778 69.2899 133.973 69.8921 133.973 70.5867C133.973 71.1455 133.854 71.6664 133.615 72.1493C133.382 72.6268 133.091 72.9957 132.744 73.2562C132.397 73.5166 131.96 73.7147 131.434 73.8503C130.913 73.9805 130.273 74.0457 129.513 74.0457H124.963ZM126.542 67.1277H129.122C129.822 67.1277 130.324 67.0815 130.628 66.9893C131.029 66.8699 131.331 66.6719 131.531 66.3952C131.738 66.1185 131.841 65.7712 131.841 65.3534C131.841 64.9573 131.746 64.6101 131.556 64.3116C131.366 64.0078 131.095 63.8016 130.742 63.6931C130.389 63.5791 129.784 63.5222 128.927 63.5222H126.542V67.1277ZM126.542 72.6376H129.513C130.023 72.6376 130.381 72.6186 130.587 72.5807C130.951 72.5156 131.255 72.407 131.499 72.2551C131.743 72.1032 131.944 71.8834 132.101 71.5959C132.258 71.3029 132.337 70.9665 132.337 70.5867C132.337 70.1417 132.223 69.7565 131.995 69.4309C131.767 69.1 131.45 68.8694 131.043 68.7391C130.641 68.6035 130.061 68.5357 129.301 68.5357H126.542V72.6376Z" fill="#235888"/>
<path d="M136.179 74.0457V62.1142H144.806V63.5222H137.758V67.1765H144.358V68.5764H137.758V72.6376H145.082V74.0457H136.179Z" fill="#235888"/>
<path d="M147.312 74.0457V62.1142H148.891V67.0137H155.093V62.1142H156.672V74.0457H155.093V68.4217H148.891V74.0457H147.312Z" fill="#235888"/>
<path d="M159.358 74.0457V62.1142H160.937V67.0137H167.139V62.1142H168.718V74.0457H167.139V68.4217H160.937V74.0457H159.358Z" fill="#235888"/>
<path d="M170.874 68.2345C170.874 66.2541 171.406 64.705 172.47 63.5873C173.533 62.4641 174.906 61.9025 176.588 61.9025C177.689 61.9025 178.682 62.1657 179.567 62.692C180.451 63.2183 181.124 63.9535 181.585 64.8976C182.052 65.8363 182.285 66.9025 182.285 68.0962C182.285 69.3061 182.041 70.3886 181.552 71.3436C181.064 72.2985 180.372 73.0229 179.477 73.5166C178.582 74.005 177.616 74.2491 176.58 74.2491C175.456 74.2491 174.453 73.9778 173.568 73.4352C172.684 72.8927 172.014 72.152 171.558 71.2133C171.102 70.2747 170.874 69.2817 170.874 68.2345ZM172.502 68.259C172.502 69.6968 172.887 70.8308 173.658 71.661C174.434 72.4857 175.405 72.8981 176.572 72.8981C177.76 72.8981 178.736 72.4803 179.501 71.6447C180.272 70.8091 180.657 69.6236 180.657 68.088C180.657 67.1168 180.492 66.2704 180.161 65.5487C179.835 64.8217 179.355 64.2601 178.72 63.864C178.091 63.4625 177.383 63.2617 176.596 63.2617C175.478 63.2617 174.515 63.647 173.707 64.4174C172.904 65.1825 172.502 66.463 172.502 68.259Z" fill="#235888"/>
<path d="M192.841 69.8623L194.42 70.2611C194.089 71.5579 193.492 72.5481 192.629 73.2318C191.772 73.91 190.722 74.2491 189.48 74.2491C188.194 74.2491 187.147 73.9887 186.338 73.4678C185.535 72.9415 184.922 72.1819 184.499 71.1889C184.081 70.196 183.872 69.1298 183.872 67.9904C183.872 66.7479 184.108 65.6654 184.58 64.743C185.058 63.8152 185.733 63.1125 186.607 62.635C187.486 62.1521 188.451 61.9107 189.504 61.9107C190.698 61.9107 191.702 62.2145 192.515 62.8222C193.329 63.4299 193.896 64.2845 194.216 65.386L192.662 65.7522C192.385 64.8841 191.984 64.2519 191.457 63.8559C190.931 63.4598 190.269 63.2617 189.472 63.2617C188.555 63.2617 187.787 63.4815 187.168 63.921C186.555 64.3605 186.124 64.9519 185.874 65.6952C185.625 66.4332 185.5 67.1955 185.5 67.9822C185.5 68.9969 185.646 69.884 185.939 70.6436C186.238 71.3978 186.699 71.9621 187.323 72.3365C187.947 72.7109 188.622 72.8981 189.349 72.8981C190.234 72.8981 190.983 72.6431 191.596 72.133C192.209 71.623 192.624 70.8661 192.841 69.8623Z" fill="#235888"/>
<path d="M198.856 74.0457V63.5222H194.925V62.1142H204.382V63.5222H200.435V74.0457H198.856Z" fill="#235888"/>
<path d="M206.034 62.1142H207.466V71.5633L213.815 62.1142H215.402V74.0457H213.969V64.6209L207.613 74.0457H206.034V62.1142Z" fill="#235888"/>
<defs>
<clipPath id="clip0_3_21">
<rect width="60.9034" height="74.3662" fill="white"/>
</clipPath>
</defs>
</svg>
